# xmcd
#
# Track frame offsets:
#	150
#	21098
#	43496
#	65624
#	86490
#	105569
#	119804
#	139762
#	161093
#	178873
#	202233
#	225238
#	247359
#	263872
#
# Disc length: 3869 seconds
#
# Revision: 5
# Processed by: cddbd v1.5PL3 Copyright (c) Steve Scherf et al.
# Submitted via: dBpowerAMP V4.0
#
DISCID=d60f1b0e
DTITLE=Southern All Stars - BALLAD 3 〜the album of LOVE〜 #DISC1
DYEAR=2000
DGENRE=Rock
TTITLE0=真夏の果実
TTITLE1=女神達への情歌 〜報道されないY型の彼方へ〜
TTITLE2=さよならベイビー
TTITLE3=逢いたくなった時に君はここにいない
TTITLE4=希望の轍
TTITLE5=忘れられたBIG WAVE
TTITLE6=せつない胸に風が吹いてた
TTITLE7=涙のキッス
TTITLE8=OH,GIRL 〜悲しい胸のスクリーン〜
TTITLE9=素敵なバーディー 〜No No Birdy〜
TTITLE10=冷たい夏
TTITLE11=HAIR
TTITLE12=慕情
TTITLE13=クリスマス・ラブ 〜涙のあとには白い雪が降る〜
EXTD=
EXTT0=
EXTT1=
EXTT2=
EXTT3=
EXTT4=
EXTT5=
EXTT6=
EXTT7=
EXTT8=
EXTT9=
EXTT10=
EXTT11=
EXTT12=
EXTT13=
PLAYORDER=
